<svg xmlns="http://www.w3.org/2000/svg" viewBox="0 0 60 41">
  <defs>
    <style>
      .cls-1 {
        fill: #121212;
      }
    </style>
  </defs>
  <title>Asset 2</title>
  <g id="Layer_2" data-name="Layer 2">
    <g id="Layer_1-2" data-name="Layer 1">
      <g id="Layer_1-3" data-name="Layer 1">
        <path class="cls-1" d="M41,7a3,3,0,1,0-3,3A3,3,0,0,0,41,7ZM38,8a1,1,0,1,1,1-1A1,1,0,0,1,38,8Z"/>
        <path class="cls-1" d="M58.41,32l1.29-1.29A1,1,0,0,0,59,29a18.48,18.48,0,0,0-7.51,1.12L44.8,25.34A14.9,14.9,0,0,0,46,19.95c5.39-.61,9.71-6.17,10-13.17a3,3,0,0,0-.8-2.16C52.79,2.06,48.87,2,42.44,2A5.84,5.84,0,0,0,38,0a7,7,0,0,0-7,6.85c-.7,2.26-2.38,2.78-5.76,3.64-4.46,1.13-10.57,2.68-17,10.89A17.44,17.44,0,0,1,4,24.91C2.19,26.08.66,27.08.39,28.74a4.28,4.28,0,0,0,1,3.16A4.47,4.47,0,0,0,0,35c0,4.26,6.66,6,23,6a1,1,0,0,0,.71-1.71L22.41,38l1.12-1.12,2.93-1,2.67,4.58A1,1,0,0,0,30,41H40a1,1,0,0,0,.71-1.71L39.41,38l1.29-1.29A1,1,0,0,0,40,35a20.47,20.47,0,0,0-6.6.78l-1.25-2a21.91,21.91,0,0,0,9.39-4.12l-.12.17,7,5A1,1,0,0,0,49,35H59a1,1,0,0,0,.71-1.71ZM14.78,38.8a10.83,10.83,0,0,1,5.76-1.75l-.24.24a1,1,0,0,0,0,1.41h0l.28.28Q17.41,38.95,14.78,38.8Zm22.52-.1.29.29H31.51a10.6,10.6,0,0,1,6-1.95l-.24.24a1,1,0,0,0,0,1.41ZM31,32l-1.72-2.76a17.54,17.54,0,0,0,3.89-4.89,7.17,7.17,0,0,1,3.25-3.43,1,1,0,0,0-.89-1.79,9.08,9.08,0,0,0-4.08,4.21,15.51,15.51,0,0,1-4.1,4.9,1,1,0,0,0-.22,1.31l4.4,7.06a10.13,10.13,0,0,0-1.69,1.18l-5.57-9.54a17.51,17.51,0,0,0,3.91-4.9,7.17,7.17,0,0,1,3.25-3.43,1,1,0,0,0-.89-1.79,9.08,9.08,0,0,0-4.08,4.21,15.51,15.51,0,0,1-4.1,4.9,1,1,0,0,0-.24,1.29l3.3,5.65L22.84,35a19,19,0,0,0-6.9.94l-2.67-.76c4.11-1,6.32-2.46,6.86-4.41.76-2.74-2-5.47-4.48-7.54a1,1,0,1,0-1.28,1.53h0c2.89,2.41,4.18,4.25,3.84,5.47-.25.91-1.8,2.61-9.35,3.77a1,1,0,0,0-.12,2l4.71,1.35a10.31,10.31,0,0,0-1.15,1,1,1,0,0,0-.22.32C5.38,38,2,36.84,2,35c0-2.37,4.93-5,12-5a1,1,0,0,0,0-2c-4.53,0-8.48,1-11,2.65a2.42,2.42,0,0,1-.61-1.59c.13-.78,1.32-1.57,2.7-2.47a19.34,19.34,0,0,0,4.72-4c6-7.68,11.77-9.13,16-10.19,3.33-.84,6.2-1.57,7.23-5.15A1,1,0,0,0,33,7a5,5,0,0,1,5-5,4,4,0,0,1,3.25,1.67A1,1,0,0,0,42,4c6.15,0,9.87,0,11.72,2a1,1,0,0,1,.23.5h0a9.7,9.7,0,0,1-6.4,2.65,14.28,14.28,0,0,0-8.13,3,1,1,0,0,0,1.16,1.63,12.42,12.42,0,0,1,7.15-2.69,11.21,11.21,0,0,0,5.94-1.94C52.62,14.29,49.12,18,45,18a1,1,0,0,0-1,1h0C44,26.31,40.23,30.08,31,32Zm17.28.31-5.45-3.9a11.52,11.52,0,0,0,1-1.27l5.73,4.09a10.32,10.32,0,0,0-1.26,1.07Zm2.2.72a10.6,10.6,0,0,1,6-1.95l-.24.24a1,1,0,0,0,0,1.41h0l.29.29Z"/>
      </g>
    </g>
  </g>
</svg>
