<svg xmlns="http://www.w3.org/2000/svg" viewBox="0 0 232.76 232.76"><defs><style>.cls-1{fill:#f9ffff;}</style></defs><title>Asset 1</title><g id="Layer_2" data-name="Layer 2"><g id="Layer_1-2" data-name="Layer 1"><path class="cls-1" d="M104.91,67.49l-21-28.78A84.24,84.24,0,0,0,52.61,61.94L73.39,90.46Z"/><path class="cls-1" d="M109.55,140.07l39.14,53.71A84.19,84.19,0,0,0,180.37,171l-39.3-53.92Z"/><rect class="cls-1" x="75.85" y="87.13" width="39" height="0.71" transform="translate(-33.23 72.95) rotate(-36.09)"/><path class="cls-1" d="M122.81,92,174.19,54.6a84.25,84.25,0,0,0-16.56-12.06L111.32,76.28Z"/><path class="cls-1" d="M91.29,115,79.81,99.26l-45.34,33a83.38,83.38,0,0,0,6.39,19.47Z"/><path class="cls-1" d="M116.38,0A116.38,116.38,0,1,0,232.76,116.38,116.38,116.38,0,0,0,116.38,0Zm64,171,13,17.87-31.52,23L148.7,193.78A84,84,0,0,1,59,176.89L34.93,194.45,16.67,169.4,35.4,155.75,23.91,140l10.55-7.69c-.05-.26-.09-.52-.14-.78l-10.52,7.66-6-8.22,15.16-11c-.06-1.29-.1-2.59-.1-3.9A83.66,83.66,0,0,1,52.61,61.94L39.88,44.47l31.52-23L83.94,38.71a84.2,84.2,0,0,1,62.38-1.4l14.5-10.57,6,8.22L157,42.15l.68.39,10.13-7.38,11.49,15.76L197.7,37.47,216,62.52l-23.36,17A84,84,0,0,1,180.37,171Z"/><path class="cls-1" d="M92.76,117,42,154a84.26,84.26,0,0,0,17,22.85l50.53-36.82Z"/><path class="cls-1" d="M176,56.35,124.28,94.06l16.79,23L192.6,79.55A84.23,84.23,0,0,0,176,56.35Z"/><rect class="cls-1" x="88.29" y="103.29" width="39" height="2.5" transform="translate(-40.89 83.54) rotate(-36.09)"/><path class="cls-1" d="M176,56.35l4.69-3.42-1.47-2-5.05,3.68C174.81,55.18,175.43,55.75,176,56.35Z"/><path class="cls-1" d="M42,154c-.38-.75-.76-1.5-1.12-2.27l-5.46,4,1.47,2Z"/><path class="cls-1" d="M73.39,90.46,33,119.92a84.13,84.13,0,0,0,1.35,11.61L79.39,98.68Z"/><path class="cls-1" d="M110.9,75.71,157,42.15a83.6,83.6,0,0,0-10.64-4.84L104.91,67.49Z"/></g></g></svg>